<?xml version="1.0" standalone="no"?>
<!DOCTYPE svg PUBLIC "-//W3C//DTD SVG 20010904//EN"
 "http://www.w3.org/TR/2001/REC-SVG-20010904/DTD/svg10.dtd">
<svg version="1.0" xmlns="http://www.w3.org/2000/svg"
 width="700.000000pt" height="700.000000pt" viewBox="0 0 700.000000 700.000000"
 preserveAspectRatio="xMidYMid meet">
<metadata>
Created by potrace 1.14, written by Peter Selinger 2001-2017
</metadata>
<g transform="translate(0.000000,700.000000) scale(0.100000,-0.100000)"
fill="#000000" stroke="none">
<path d="M1638 6602 l-688 -2 0 -129 0 -129 -297 0 -298 1 -1 -2846 c-1 -1566
1 -2847 5 -2848 19 -3 6268 -4 6278 -1 9 3 12 59 12 210 0 114 0 240 0 280 l1
72 85 0 c47 0 85 3 86 8 1 4 2 1215 3 2691 1 1781 -2 2685 -9 2687 -12 5
-4229 10 -5177 6z"/>
</g>
</svg>
