<svg width="596" height="596" viewBox="0 0 596 596" fill="none" xmlns="http://www.w3.org/2000/svg">
<rect x="39" y="65" width="518" height="467" fill="white" stroke="black" stroke-width="18"/>
<rect width="500" height="459" transform="translate(81 34)" fill="white"/>
<g opacity="0.25" filter="url(#filter0_f_1_6)">
<path d="M136.925 468.68C130.858 468.68 125.165 468.12 119.845 467C114.525 465.973 109.812 464.247 105.705 461.82C101.692 459.393 98.5183 456.22 96.185 452.3C93.8517 448.287 92.685 443.387 92.685 437.6C92.685 437.227 92.685 436.807 92.685 436.34C92.685 435.873 92.7317 435.5 92.825 435.22H117.045C117.045 435.5 116.998 435.873 116.905 436.34C116.905 436.713 116.905 437.04 116.905 437.32C116.905 440.307 117.652 442.733 119.145 444.6C120.732 446.373 122.925 447.68 125.725 448.52C128.525 449.267 131.792 449.64 135.525 449.64C137.578 449.64 139.492 449.547 141.265 449.36C143.038 449.173 144.625 448.847 146.025 448.38C147.425 447.913 148.638 447.353 149.665 446.7C150.785 445.953 151.578 445.113 152.045 444.18C152.605 443.153 152.885 441.987 152.885 440.68C152.885 438.533 152.045 436.76 150.365 435.36C148.778 433.96 146.585 432.793 143.785 431.86C141.078 430.927 137.998 430.04 134.545 429.2C131.092 428.36 127.498 427.473 123.765 426.54C120.032 425.607 116.438 424.44 112.985 423.04C109.532 421.64 106.405 419.867 103.605 417.72C100.898 415.573 98.705 412.913 97.025 409.74C95.4383 406.473 94.645 402.553 94.645 397.98C94.645 392.94 95.7183 388.6 97.865 384.96C100.012 381.227 102.952 378.193 106.685 375.86C110.512 373.527 114.898 371.847 119.845 370.82C124.792 369.7 130.065 369.14 135.665 369.14C141.172 369.14 146.305 369.7 151.065 370.82C155.918 371.94 160.212 373.713 163.945 376.14C167.678 378.473 170.572 381.46 172.625 385.1C174.772 388.647 175.892 392.94 175.985 397.98V399.66H151.905V398.68C151.905 396.533 151.298 394.667 150.085 393.08C148.965 391.4 147.238 390.093 144.905 389.16C142.572 388.133 139.678 387.62 136.225 387.62C132.772 387.62 129.832 387.947 127.405 388.6C125.072 389.253 123.252 390.187 121.945 391.4C120.732 392.613 120.125 394.06 120.125 395.74C120.125 397.793 120.918 399.473 122.505 400.78C124.185 402.087 126.425 403.207 129.225 404.14C132.025 405.073 135.152 405.96 138.605 406.8C142.058 407.547 145.605 408.387 149.245 409.32C152.978 410.16 156.572 411.28 160.025 412.68C163.478 413.987 166.605 415.713 169.405 417.86C172.205 419.913 174.398 422.48 175.985 425.56C177.665 428.64 178.505 432.373 178.505 436.76C178.505 444.413 176.685 450.573 173.045 455.24C169.498 459.907 164.552 463.313 158.205 465.46C151.952 467.607 144.858 468.68 136.925 468.68ZM207.522 467V391.4H176.302V370.82H263.802V391.4H232.582V467H207.522ZM266.715 467V370.82H322.575C329.668 370.82 335.595 372.173 340.355 374.88C345.115 377.493 348.662 381.133 350.995 385.8C353.422 390.373 354.635 395.507 354.635 401.2C354.635 407.36 353.188 412.867 350.295 417.72C347.495 422.48 343.528 426.213 338.395 428.92L357.715 467H329.715L313.755 433.12H291.775V467H266.715ZM291.775 414.5H317.675C321.128 414.5 323.882 413.38 325.935 411.14C328.082 408.807 329.155 405.727 329.155 401.9C329.155 399.38 328.688 397.233 327.755 395.46C326.822 393.687 325.515 392.333 323.835 391.4C322.155 390.373 320.102 389.86 317.675 389.86H291.775V414.5ZM403.798 468.68C394.558 468.68 386.578 467.233 379.858 464.34C373.231 461.447 368.144 457.107 364.598 451.32C361.051 445.533 359.278 438.347 359.278 429.76V370.82H384.478V429.2C384.478 435.36 386.111 440.213 389.378 443.76C392.644 447.307 397.451 449.08 403.798 449.08C410.144 449.08 414.998 447.307 418.358 443.76C421.718 440.213 423.398 435.36 423.398 429.2V370.82H448.458V429.76C448.458 438.347 446.684 445.533 443.138 451.32C439.591 457.107 434.504 461.447 427.878 464.34C421.251 467.233 413.224 468.68 403.798 468.68ZM458.006 467V370.82H494.546L506.166 413.66C506.633 415.153 507.193 417.207 507.846 419.82C508.5 422.34 509.153 425 509.806 427.8C510.46 430.6 511.02 433.12 511.486 435.36H512.606C512.98 433.587 513.446 431.487 514.006 429.06C514.566 426.54 515.173 423.927 515.826 421.22C516.48 418.42 517.086 415.853 517.646 413.52L529.406 370.82H564.966V467H540.606V425.98C540.606 421.967 540.606 417.907 540.606 413.8C540.7 409.693 540.793 405.96 540.886 402.6C540.98 399.24 541.026 396.813 541.026 395.32H539.906C539.626 396.72 539.16 398.773 538.506 401.48C537.946 404.093 537.293 406.847 536.546 409.74C535.893 412.54 535.286 414.967 534.726 417.02L520.726 467H500.566L486.426 417.02C485.96 415.153 485.4 412.913 484.746 410.3C484.093 407.687 483.44 405.027 482.786 402.32C482.226 399.613 481.713 397.327 481.246 395.46H480.126C480.22 397.887 480.313 400.873 480.406 404.42C480.5 407.873 480.593 411.513 480.686 415.34C480.78 419.073 480.826 422.62 480.826 425.98V467H458.006Z" fill="black"/>
</g>
<g opacity="0.5" filter="url(#filter1_f_1_6)">
<path d="M136.925 363.68C130.858 363.68 125.165 363.12 119.845 362C114.525 360.973 109.812 359.247 105.705 356.82C101.692 354.393 98.5183 351.22 96.185 347.3C93.8517 343.287 92.685 338.387 92.685 332.6C92.685 332.227 92.685 331.807 92.685 331.34C92.685 330.873 92.7317 330.5 92.825 330.22H117.045C117.045 330.5 116.998 330.873 116.905 331.34C116.905 331.713 116.905 332.04 116.905 332.32C116.905 335.307 117.652 337.733 119.145 339.6C120.732 341.373 122.925 342.68 125.725 343.52C128.525 344.267 131.792 344.64 135.525 344.64C137.578 344.64 139.492 344.547 141.265 344.36C143.038 344.173 144.625 343.847 146.025 343.38C147.425 342.913 148.638 342.353 149.665 341.7C150.785 340.953 151.578 340.113 152.045 339.18C152.605 338.153 152.885 336.987 152.885 335.68C152.885 333.533 152.045 331.76 150.365 330.36C148.778 328.96 146.585 327.793 143.785 326.86C141.078 325.927 137.998 325.04 134.545 324.2C131.092 323.36 127.498 322.473 123.765 321.54C120.032 320.607 116.438 319.44 112.985 318.04C109.532 316.64 106.405 314.867 103.605 312.72C100.898 310.573 98.705 307.913 97.025 304.74C95.4383 301.473 94.645 297.553 94.645 292.98C94.645 287.94 95.7183 283.6 97.865 279.96C100.012 276.227 102.952 273.193 106.685 270.86C110.512 268.527 114.898 266.847 119.845 265.82C124.792 264.7 130.065 264.14 135.665 264.14C141.172 264.14 146.305 264.7 151.065 265.82C155.918 266.94 160.212 268.713 163.945 271.14C167.678 273.473 170.572 276.46 172.625 280.1C174.772 283.647 175.892 287.94 175.985 292.98V294.66H151.905V293.68C151.905 291.533 151.298 289.667 150.085 288.08C148.965 286.4 147.238 285.093 144.905 284.16C142.572 283.133 139.678 282.62 136.225 282.62C132.772 282.62 129.832 282.947 127.405 283.6C125.072 284.253 123.252 285.187 121.945 286.4C120.732 287.613 120.125 289.06 120.125 290.74C120.125 292.793 120.918 294.473 122.505 295.78C124.185 297.087 126.425 298.207 129.225 299.14C132.025 300.073 135.152 300.96 138.605 301.8C142.058 302.547 145.605 303.387 149.245 304.32C152.978 305.16 156.572 306.28 160.025 307.68C163.478 308.987 166.605 310.713 169.405 312.86C172.205 314.913 174.398 317.48 175.985 320.56C177.665 323.64 178.505 327.373 178.505 331.76C178.505 339.413 176.685 345.573 173.045 350.24C169.498 354.907 164.552 358.313 158.205 360.46C151.952 362.607 144.858 363.68 136.925 363.68ZM207.522 362V286.4H176.302V265.82H263.802V286.4H232.582V362H207.522ZM266.715 362V265.82H322.575C329.668 265.82 335.595 267.173 340.355 269.88C345.115 272.493 348.662 276.133 350.995 280.8C353.422 285.373 354.635 290.507 354.635 296.2C354.635 302.36 353.188 307.867 350.295 312.72C347.495 317.48 343.528 321.213 338.395 323.92L357.715 362H329.715L313.755 328.12H291.775V362H266.715ZM291.775 309.5H317.675C321.128 309.5 323.882 308.38 325.935 306.14C328.082 303.807 329.155 300.727 329.155 296.9C329.155 294.38 328.688 292.233 327.755 290.46C326.822 288.687 325.515 287.333 323.835 286.4C322.155 285.373 320.102 284.86 317.675 284.86H291.775V309.5ZM403.798 363.68C394.558 363.68 386.578 362.233 379.858 359.34C373.231 356.447 368.144 352.107 364.598 346.32C361.051 340.533 359.278 333.347 359.278 324.76V265.82H384.478V324.2C384.478 330.36 386.111 335.213 389.378 338.76C392.644 342.307 397.451 344.08 403.798 344.08C410.144 344.08 414.998 342.307 418.358 338.76C421.718 335.213 423.398 330.36 423.398 324.2V265.82H448.458V324.76C448.458 333.347 446.684 340.533 443.138 346.32C439.591 352.107 434.504 356.447 427.878 359.34C421.251 362.233 413.224 363.68 403.798 363.68ZM458.006 362V265.82H494.546L506.166 308.66C506.633 310.153 507.193 312.207 507.846 314.82C508.5 317.34 509.153 320 509.806 322.8C510.46 325.6 511.02 328.12 511.486 330.36H512.606C512.98 328.587 513.446 326.487 514.006 324.06C514.566 321.54 515.173 318.927 515.826 316.22C516.48 313.42 517.086 310.853 517.646 308.52L529.406 265.82H564.966V362H540.606V320.98C540.606 316.967 540.606 312.907 540.606 308.8C540.7 304.693 540.793 300.96 540.886 297.6C540.98 294.24 541.026 291.813 541.026 290.32H539.906C539.626 291.72 539.16 293.773 538.506 296.48C537.946 299.093 537.293 301.847 536.546 304.74C535.893 307.54 535.286 309.967 534.726 312.02L520.726 362H500.566L486.426 312.02C485.96 310.153 485.4 307.913 484.746 305.3C484.093 302.687 483.44 300.027 482.786 297.32C482.226 294.613 481.713 292.327 481.246 290.46H480.126C480.22 292.887 480.313 295.873 480.406 299.42C480.5 302.873 480.593 306.513 480.686 310.34C480.78 314.073 480.826 317.62 480.826 320.98V362H458.006Z" fill="black"/>
</g>
<g opacity="0.75" filter="url(#filter2_f_1_6)">
<path d="M136.925 258.68C130.858 258.68 125.165 258.12 119.845 257C114.525 255.973 109.812 254.247 105.705 251.82C101.692 249.393 98.5183 246.22 96.185 242.3C93.8517 238.287 92.685 233.387 92.685 227.6C92.685 227.227 92.685 226.807 92.685 226.34C92.685 225.873 92.7317 225.5 92.825 225.22H117.045C117.045 225.5 116.998 225.873 116.905 226.34C116.905 226.713 116.905 227.04 116.905 227.32C116.905 230.307 117.652 232.733 119.145 234.6C120.732 236.373 122.925 237.68 125.725 238.52C128.525 239.267 131.792 239.64 135.525 239.64C137.578 239.64 139.492 239.547 141.265 239.36C143.038 239.173 144.625 238.847 146.025 238.38C147.425 237.913 148.638 237.353 149.665 236.7C150.785 235.953 151.578 235.113 152.045 234.18C152.605 233.153 152.885 231.987 152.885 230.68C152.885 228.533 152.045 226.76 150.365 225.36C148.778 223.96 146.585 222.793 143.785 221.86C141.078 220.927 137.998 220.04 134.545 219.2C131.092 218.36 127.498 217.473 123.765 216.54C120.032 215.607 116.438 214.44 112.985 213.04C109.532 211.64 106.405 209.867 103.605 207.72C100.898 205.573 98.705 202.913 97.025 199.74C95.4383 196.473 94.645 192.553 94.645 187.98C94.645 182.94 95.7183 178.6 97.865 174.96C100.012 171.227 102.952 168.193 106.685 165.86C110.512 163.527 114.898 161.847 119.845 160.82C124.792 159.7 130.065 159.14 135.665 159.14C141.172 159.14 146.305 159.7 151.065 160.82C155.918 161.94 160.212 163.713 163.945 166.14C167.678 168.473 170.572 171.46 172.625 175.1C174.772 178.647 175.892 182.94 175.985 187.98V189.66H151.905V188.68C151.905 186.533 151.298 184.667 150.085 183.08C148.965 181.4 147.238 180.093 144.905 179.16C142.572 178.133 139.678 177.62 136.225 177.62C132.772 177.62 129.832 177.947 127.405 178.6C125.072 179.253 123.252 180.187 121.945 181.4C120.732 182.613 120.125 184.06 120.125 185.74C120.125 187.793 120.918 189.473 122.505 190.78C124.185 192.087 126.425 193.207 129.225 194.14C132.025 195.073 135.152 195.96 138.605 196.8C142.058 197.547 145.605 198.387 149.245 199.32C152.978 200.16 156.572 201.28 160.025 202.68C163.478 203.987 166.605 205.713 169.405 207.86C172.205 209.913 174.398 212.48 175.985 215.56C177.665 218.64 178.505 222.373 178.505 226.76C178.505 234.413 176.685 240.573 173.045 245.24C169.498 249.907 164.552 253.313 158.205 255.46C151.952 257.607 144.858 258.68 136.925 258.68ZM207.522 257V181.4H176.302V160.82H263.802V181.4H232.582V257H207.522ZM266.715 257V160.82H322.575C329.668 160.82 335.595 162.173 340.355 164.88C345.115 167.493 348.662 171.133 350.995 175.8C353.422 180.373 354.635 185.507 354.635 191.2C354.635 197.36 353.188 202.867 350.295 207.72C347.495 212.48 343.528 216.213 338.395 218.92L357.715 257H329.715L313.755 223.12H291.775V257H266.715ZM291.775 204.5H317.675C321.128 204.5 323.882 203.38 325.935 201.14C328.082 198.807 329.155 195.727 329.155 191.9C329.155 189.38 328.688 187.233 327.755 185.46C326.822 183.687 325.515 182.333 323.835 181.4C322.155 180.373 320.102 179.86 317.675 179.86H291.775V204.5ZM403.798 258.68C394.558 258.68 386.578 257.233 379.858 254.34C373.231 251.447 368.144 247.107 364.598 241.32C361.051 235.533 359.278 228.347 359.278 219.76V160.82H384.478V219.2C384.478 225.36 386.111 230.213 389.378 233.76C392.644 237.307 397.451 239.08 403.798 239.08C410.144 239.08 414.998 237.307 418.358 233.76C421.718 230.213 423.398 225.36 423.398 219.2V160.82H448.458V219.76C448.458 228.347 446.684 235.533 443.138 241.32C439.591 247.107 434.504 251.447 427.878 254.34C421.251 257.233 413.224 258.68 403.798 258.68ZM458.006 257V160.82H494.546L506.166 203.66C506.633 205.153 507.193 207.207 507.846 209.82C508.5 212.34 509.153 215 509.806 217.8C510.46 220.6 511.02 223.12 511.486 225.36H512.606C512.98 223.587 513.446 221.487 514.006 219.06C514.566 216.54 515.173 213.927 515.826 211.22C516.48 208.42 517.086 205.853 517.646 203.52L529.406 160.82H564.966V257H540.606V215.98C540.606 211.967 540.606 207.907 540.606 203.8C540.7 199.693 540.793 195.96 540.886 192.6C540.98 189.24 541.026 186.813 541.026 185.32H539.906C539.626 186.72 539.16 188.773 538.506 191.48C537.946 194.093 537.293 196.847 536.546 199.74C535.893 202.54 535.286 204.967 534.726 207.02L520.726 257H500.566L486.426 207.02C485.96 205.153 485.4 202.913 484.746 200.3C484.093 197.687 483.44 195.027 482.786 192.32C482.226 189.613 481.713 187.327 481.246 185.46H480.126C480.22 187.887 480.313 190.873 480.406 194.42C480.5 197.873 480.593 201.513 480.686 205.34C480.78 209.073 480.826 212.62 480.826 215.98V257H458.006Z" fill="black"/>
</g>
<path d="M136.925 153.68C130.858 153.68 125.165 153.12 119.845 152C114.525 150.973 109.812 149.247 105.705 146.82C101.692 144.393 98.5183 141.22 96.185 137.3C93.8517 133.287 92.685 128.387 92.685 122.6C92.685 122.227 92.685 121.807 92.685 121.34C92.685 120.873 92.7317 120.5 92.825 120.22H117.045C117.045 120.5 116.998 120.873 116.905 121.34C116.905 121.713 116.905 122.04 116.905 122.32C116.905 125.307 117.652 127.733 119.145 129.6C120.732 131.373 122.925 132.68 125.725 133.52C128.525 134.267 131.792 134.64 135.525 134.64C137.578 134.64 139.492 134.547 141.265 134.36C143.038 134.173 144.625 133.847 146.025 133.38C147.425 132.913 148.638 132.353 149.665 131.7C150.785 130.953 151.578 130.113 152.045 129.18C152.605 128.153 152.885 126.987 152.885 125.68C152.885 123.533 152.045 121.76 150.365 120.36C148.778 118.96 146.585 117.793 143.785 116.86C141.078 115.927 137.998 115.04 134.545 114.2C131.092 113.36 127.498 112.473 123.765 111.54C120.032 110.607 116.438 109.44 112.985 108.04C109.532 106.64 106.405 104.867 103.605 102.72C100.898 100.573 98.705 97.9133 97.025 94.74C95.4383 91.4733 94.645 87.5533 94.645 82.98C94.645 77.94 95.7183 73.6 97.865 69.96C100.012 66.2267 102.952 63.1933 106.685 60.86C110.512 58.5267 114.898 56.8467 119.845 55.82C124.792 54.7 130.065 54.14 135.665 54.14C141.172 54.14 146.305 54.7 151.065 55.82C155.918 56.94 160.212 58.7133 163.945 61.14C167.678 63.4733 170.572 66.46 172.625 70.1C174.772 73.6467 175.892 77.94 175.985 82.98V84.66H151.905V83.68C151.905 81.5333 151.298 79.6667 150.085 78.08C148.965 76.4 147.238 75.0933 144.905 74.16C142.572 73.1333 139.678 72.62 136.225 72.62C132.772 72.62 129.832 72.9467 127.405 73.6C125.072 74.2533 123.252 75.1867 121.945 76.4C120.732 77.6133 120.125 79.06 120.125 80.74C120.125 82.7933 120.918 84.4733 122.505 85.78C124.185 87.0867 126.425 88.2067 129.225 89.14C132.025 90.0733 135.152 90.96 138.605 91.8C142.058 92.5467 145.605 93.3867 149.245 94.32C152.978 95.16 156.572 96.28 160.025 97.68C163.478 98.9867 166.605 100.713 169.405 102.86C172.205 104.913 174.398 107.48 175.985 110.56C177.665 113.64 178.505 117.373 178.505 121.76C178.505 129.413 176.685 135.573 173.045 140.24C169.498 144.907 164.552 148.313 158.205 150.46C151.952 152.607 144.858 153.68 136.925 153.68ZM207.522 152V76.4H176.302V55.82H263.802V76.4H232.582V152H207.522ZM266.715 152V55.82H322.575C329.668 55.82 335.595 57.1733 340.355 59.88C345.115 62.4933 348.662 66.1333 350.995 70.8C353.422 75.3733 354.635 80.5067 354.635 86.2C354.635 92.36 353.188 97.8667 350.295 102.72C347.495 107.48 343.528 111.213 338.395 113.92L357.715 152H329.715L313.755 118.12H291.775V152H266.715ZM291.775 99.5H317.675C321.128 99.5 323.882 98.38 325.935 96.14C328.082 93.8067 329.155 90.7267 329.155 86.9C329.155 84.38 328.688 82.2333 327.755 80.46C326.822 78.6867 325.515 77.3333 323.835 76.4C322.155 75.3733 320.102 74.86 317.675 74.86H291.775V99.5ZM403.798 153.68C394.558 153.68 386.578 152.233 379.858 149.34C373.231 146.447 368.144 142.107 364.598 136.32C361.051 130.533 359.278 123.347 359.278 114.76V55.82H384.478V114.2C384.478 120.36 386.111 125.213 389.378 128.76C392.644 132.307 397.451 134.08 403.798 134.08C410.144 134.08 414.998 132.307 418.358 128.76C421.718 125.213 423.398 120.36 423.398 114.2V55.82H448.458V114.76C448.458 123.347 446.684 130.533 443.138 136.32C439.591 142.107 434.504 146.447 427.878 149.34C421.251 152.233 413.224 153.68 403.798 153.68ZM458.006 152V55.82H494.546L506.166 98.66C506.633 100.153 507.193 102.207 507.846 104.82C508.5 107.34 509.153 110 509.806 112.8C510.46 115.6 511.02 118.12 511.486 120.36H512.606C512.98 118.587 513.446 116.487 514.006 114.06C514.566 111.54 515.173 108.927 515.826 106.22C516.48 103.42 517.086 100.853 517.646 98.52L529.406 55.82H564.966V152H540.606V110.98C540.606 106.967 540.606 102.907 540.606 98.8C540.7 94.6933 540.793 90.96 540.886 87.6C540.98 84.24 541.026 81.8133 541.026 80.32H539.906C539.626 81.72 539.16 83.7733 538.506 86.48C537.946 89.0933 537.293 91.8467 536.546 94.74C535.893 97.54 535.286 99.9667 534.726 102.02L520.726 152H500.566L486.426 102.02C485.96 100.153 485.4 97.9133 484.746 95.3C484.093 92.6867 483.44 90.0267 482.786 87.32C482.226 84.6133 481.713 82.3267 481.246 80.46H480.126C480.22 82.8867 480.313 85.8733 480.406 89.42C480.5 92.8733 480.593 96.5133 480.686 100.34C480.78 104.073 480.826 107.62 480.826 110.98V152H458.006Z" fill="black"/>
<defs>
<filter id="filter0_f_1_6" x="88.685" y="365.14" width="480.281" height="107.54" filterUnits="userSpaceOnUse" color-interpolation-filters="sRGB">
<feFlood flood-opacity="0" result="BackgroundImageFix"/>
<feBlend mode="normal" in="SourceGraphic" in2="BackgroundImageFix" result="shape"/>
<feGaussianBlur stdDeviation="2" result="effect1_foregroundBlur_1_6"/>
</filter>
<filter id="filter1_f_1_6" x="89.685" y="261.14" width="478.281" height="105.54" filterUnits="userSpaceOnUse" color-interpolation-filters="sRGB">
<feFlood flood-opacity="0" result="BackgroundImageFix"/>
<feBlend mode="normal" in="SourceGraphic" in2="BackgroundImageFix" result="shape"/>
<feGaussianBlur stdDeviation="1.5" result="effect1_foregroundBlur_1_6"/>
</filter>
<filter id="filter2_f_1_6" x="90.685" y="157.14" width="476.281" height="103.54" filterUnits="userSpaceOnUse" color-interpolation-filters="sRGB">
<feFlood flood-opacity="0" result="BackgroundImageFix"/>
<feBlend mode="normal" in="SourceGraphic" in2="BackgroundImageFix" result="shape"/>
<feGaussianBlur stdDeviation="1" result="effect1_foregroundBlur_1_6"/>
</filter>
</defs>
</svg>
