<svg display="none" xmlns="http://www.w3.org/2000/svg">
  <symbol id="location">
    <svg width="36" height="36" viewBox="0 0 36 36" fill="none" xmlns="http://www.w3.org/2000/svg">
      <rect width="36" height="36" rx="18" fill="#FF6E40"/>
      <path d="M23.907 13.48C23.8429 13.2399 23.7128 12.984 23.6165 12.76C22.4647 9.99202 19.9481 9.00002 17.9161 9.00002C15.1958 9.00002 12.1998 10.8241 11.7998 14.5839V15.352C11.7998 15.3841 11.8109 15.672 11.8265 15.8161C12.0508 17.6079 13.4647 19.5122 14.5206 21.304C15.6566 23.2238 16.8355 25.1123 18.0033 27C18.7235 25.7681 19.441 24.52 20.1448 23.32C20.3366 22.9679 20.5592 22.6159 20.7512 22.2798C20.8792 22.056 21.1237 21.8322 21.2354 21.6239C22.3714 19.5441 24.1999 17.4481 24.1999 15.384V14.5361C24.1999 14.3123 23.9226 13.5283 23.907 13.48ZM17.9659 17.3361C17.1663 17.3361 16.291 16.9363 15.859 15.8321C15.7947 15.6563 15.7999 15.3041 15.7999 15.2718V14.7758C15.7999 13.3682 16.9951 12.728 18.0349 12.728C19.3149 12.728 20.305 13.7522 20.305 15.0323C20.305 16.3123 19.246 17.3361 17.9659 17.3361Z" fill="#3B322D"/>
    </svg>
  </symbol>

  <symbol id="tel">
    <svg width="36" height="36" viewBox="0 0 36 36" fill="none" xmlns="http://www.w3.org/2000/svg">
    <rect width="36" height="36" rx="18" fill="#FF6E40"/>
      <path d="M24.1384 20.2606C23.4878 19.6183 22.6757 19.6183 22.0293 20.2606C21.5362 20.7495 21.0431 21.2385 20.5583 21.7357C20.4257 21.8724 20.3139 21.9014 20.1523 21.8103C19.8332 21.6363 19.4934 21.4954 19.1868 21.3048C17.7573 20.4056 16.5598 19.2496 15.4991 17.9485C14.9728 17.3021 14.5046 16.6101 14.1773 15.8312C14.111 15.6737 14.1234 15.5701 14.2519 15.4417C14.7449 14.9651 15.2256 14.4762 15.7104 13.9873C16.3858 13.3077 16.3858 12.5122 15.7062 11.8285C15.3209 11.439 14.9356 11.0578 14.5502 10.6683C14.1524 10.2705 13.7588 9.86859 13.3569 9.47495C12.7063 8.84099 11.8942 8.84099 11.2478 9.4791C10.7506 9.96804 10.2741 10.4694 9.76855 10.9501C9.30033 11.3934 9.06415 11.9362 9.01443 12.5702C8.9357 13.6019 9.18846 14.5757 9.5448 15.5245C10.2741 17.4886 11.3845 19.233 12.7312 20.8324C14.5502 22.9953 16.7214 24.7066 19.2614 25.9414C20.405 26.4966 21.5901 26.9234 22.8787 26.9939C23.7654 27.0436 24.5361 26.8198 25.1535 26.1279C25.5762 25.6555 26.0527 25.2246 26.5002 24.7729C27.1631 24.1017 27.1673 23.2895 26.5085 22.6266C25.7212 21.8351 24.9298 21.0479 24.1384 20.2606Z" fill="#3B322D"/>
    </svg>
  </symbol>

  <symbol id="arrow-prev">
    <svg width="11" height="18" viewBox="0 0 11 18" xmlns="http://www.w3.org/2000/svg">
      <path fill-rule="evenodd" clip-rule="evenodd" d="M3.41436 9.00008L10.0002 15.5859C10.3907 15.9764 10.3907 16.6096 10.0002 17.0001C9.60963 17.3906 8.97646 17.3906 8.58594 17.0001L0.585938 9.00008L8.58594 1.00007C8.97646 0.60955 9.60963 0.609551 10.0002 1.00008C10.3907 1.3906 10.3907 2.02376 10.0002 2.41429L3.41436 9.00008Z"/>
    </svg>
  </symbol>

  <symbol id="arrow-next">
    <svg width="11" height="18" viewBox="0 0 11 18" xmlns="http://www.w3.org/2000/svg">
      <path fill-rule="evenodd" clip-rule="evenodd" d="M7.58564 9.00008L0.999848 15.5859C0.609324 15.9764 0.609324 16.6096 0.999849 17.0001C1.39037 17.3906 2.02354 17.3906 2.41406 17.0001L10.4141 9.00008L2.41406 1.00007C2.02354 0.60955 1.39037 0.609551 0.999849 1.00008C0.609324 1.3906 0.609324 2.02376 0.999849 2.41429L7.58564 9.00008Z"/>
    </svg>
  </symbol>

  <symbol id="email">
    <svg width="54" height="54" viewBox="0 0 54 54" fill="none" xmlns="http://www.w3.org/2000/svg">
      <rect width="54" height="54" rx="27" fill="#BFBFBF"/>
      <path d="M36.7057 32.0146C36.7057 32.4402 36.586 32.8347 36.3943 33.1818L30.2652 26.3242L36.3278 21.0199C36.5636 21.3942 36.7057 21.8338 36.7057 22.3089V32.0146ZM26.9998 27.5693L35.4358 20.1881C35.0896 19.9985 34.6998 19.8823 34.2793 19.8823H19.7204C19.2994 19.8823 18.9094 19.9985 18.5646 20.1881L26.9998 27.5693ZM29.3517 27.1228L27.399 28.8324C27.2848 28.9319 27.1426 28.9816 26.9998 28.9816C26.857 28.9816 26.7148 28.9319 26.6006 28.8324L24.6474 27.1227L18.4408 34.0679C18.8128 34.3013 19.2488 34.4411 19.7204 34.4411H34.2793C34.7507 34.4411 35.1869 34.3013 35.5588 34.0679L29.3517 27.1228ZM17.6719 21.0199C17.4361 21.3941 17.2939 21.8338 17.2939 22.3089V32.0146C17.2939 32.4402 17.4131 32.8347 17.6056 33.1818L23.7339 26.323L17.6719 21.0199Z" fill="#404040"/>
    </svg>
  </symbol>

  <symbol id="clock">
    <svg width="54" height="54" viewBox="0 0 54 54" fill="none" xmlns="http://www.w3.org/2000/svg">
      <rect width="54" height="54" rx="27" fill="#BFBFBF"/>
      <path fill-rule="evenodd" clip-rule="evenodd" d="M27.0003 37.0832C21.4315 37.0832 16.917 32.5687 16.917 26.9998C16.917 21.431 21.4315 16.9165 27.0003 16.9165C32.5692 16.9165 37.0837 21.431 37.0837 26.9998C37.0837 32.5687 32.5692 37.0832 27.0003 37.0832ZM27.9173 26.0833H31.584V27.9167H26.084V20.5H27.9173V26.0833Z" fill="#404040"/>
    </svg>
  </symbol>

  <symbol id="contact-location">
    <svg width="54" height="54" viewBox="0 0 54 54" fill="none" xmlns="http://www.w3.org/2000/svg">
      <rect width="54" height="54" rx="27" fill="#BFBFBF"/>
      <path d="M34.2195 21.4756C34.1412 21.1821 33.9822 20.8694 33.8645 20.5956C32.4568 17.2124 29.3809 16 26.8973 16C23.5726 16 19.9108 18.2294 19.4219 22.8247V23.7635C19.4219 23.8027 19.4354 24.1547 19.4546 24.3307C19.7286 26.5207 21.4567 28.8482 22.7473 31.0382C24.1358 33.3846 25.5766 35.6928 27.004 37.9999C27.8842 36.4943 28.7612 34.9689 29.6213 33.5022C29.8557 33.0718 30.1278 32.6417 30.3625 32.2308C30.5189 31.9573 30.8177 31.6837 30.9542 31.4292C32.3427 28.8871 34.5775 26.3254 34.5775 23.8027V22.7663C34.5776 22.4928 34.2386 21.5346 34.2195 21.4756ZM26.9582 26.1886C25.9809 26.1886 24.9112 25.6999 24.3831 24.3503C24.3045 24.1355 24.3108 23.705 24.3108 23.6655V23.0593C24.3108 21.3389 25.7716 20.5565 27.0425 20.5565C28.607 20.5565 29.8171 21.8082 29.8171 23.3728C29.8171 24.9373 28.5228 26.1886 26.9582 26.1886Z" fill="#404040"/>
    </svg>
  </symbol>

  <symbol id="contact-tel">
    <svg width="54" height="54" viewBox="0 0 54 54" fill="none" xmlns="http://www.w3.org/2000/svg">
      <rect width="54" height="54" rx="27" fill="#BFBFBF"/>
      <path d="M34.5024 29.7629C33.7073 28.978 32.7147 28.978 31.9247 29.7629C31.322 30.3605 30.7194 30.9581 30.1269 31.5659C29.9648 31.733 29.8281 31.7684 29.6306 31.657C29.2406 31.4443 28.8253 31.2721 28.4506 31.0392C26.7034 29.9402 25.2398 28.5273 23.9433 26.9371C23.3001 26.147 22.7279 25.3013 22.3278 24.3492C22.2468 24.1567 22.262 24.0301 22.4189 23.8731C23.0216 23.2907 23.6091 22.6931 24.2016 22.0956C25.0271 21.265 25.0271 20.2927 24.1965 19.457C23.7255 18.981 23.2546 18.5151 22.7836 18.039C22.2974 17.5529 21.8163 17.0616 21.3251 16.5805C20.53 15.8057 19.5373 15.8057 18.7473 16.5856C18.1396 17.1832 17.5572 17.7959 16.9393 18.3834C16.3671 18.9253 16.0784 19.5887 16.0176 20.3636C15.9214 21.6246 16.2303 22.8147 16.6659 23.9744C17.5572 26.3749 18.9144 28.507 20.5603 30.4618C22.7836 33.1054 25.4373 35.197 28.5417 36.7061C29.9395 37.3848 31.3879 37.9064 32.9629 37.9925C34.0466 38.0533 34.9886 37.7798 35.7432 36.934C36.2598 36.3567 36.8422 35.83 37.3891 35.278C38.1994 34.4576 38.2045 33.465 37.3992 32.6547C36.437 31.6874 35.4697 30.7252 34.5024 29.7629Z" fill="#404040"/>
    </svg>
  </symbol>

  <symbol id="more">
    <svg width="20" height="20" viewBox="0 0 20 20" xmlns="http://www.w3.org/2000/svg">
      <path fill-rule="evenodd" clip-rule="evenodd" d="M10 2C12.3936 2 14.4465 3.0787 15.8069 5H12V7H19V0H17V3.27035C15.2749 1.18251 12.8042 0 10 0C4.47715 0 0 4.47715 0 10H2C2 5.58172 5.58172 2 10 2ZM10 18C7.60638 18 5.55354 16.9213 4.19306 15H8V13H1V20H3V16.7297C4.72511 18.8175 7.19577 20 10 20C15.5228 20 20 15.5228 20 10H18C18 14.4183 14.4183 18 10 18Z"/>
    </svg>
  </symbol>

  <symbol id="star">
    <svg xmlns="http://www.w3.org/2000/svg" enable-background="new 0 0 512 512" viewBox="0 0 512 512"><polygon fill="#ffd759" points="102.6 494.1 137 320.1 6 200.5 182.1 179.5 255.3 17.9 329.7 178.9 506 198.6 375.9 319.2 411.6 492.9 256.8 406.4"/><polygon fill="#fabd3b" points="256 256 6 200.5 137 320.1"/><polygon fill="#fabd3b" points="256 256 102.6 494.1 256.8 406.4 411.6 492.9"/><polygon fill="#fabd3b" points="256 256 506 198.6 375.9 319.2"/><polygon fill="#fabd3b" points="255.3 17.9 256 256 329.7 178.9"/></svg>
  </symbol>

  <symbol id="instagram">
    <svg xmlns="http://www.w3.org/2000/svg" xmlns:xlink="http://www.w3.org/1999/xlink" viewBox="0,0,256,256" width="30px" height="30px" fill-rule="nonzero"><g fill="#404040" fill-rule="nonzero" stroke="none" stroke-width="1" stroke-linecap="butt" stroke-linejoin="miter" stroke-miterlimit="10" stroke-dasharray="" stroke-dashoffset="0" font-family="none" font-weight="none" font-size="none" text-anchor="none" style="mix-blend-mode: normal"><g transform="scale(8.53333,8.53333)"><path d="M9.99805,3c-3.859,0 -6.99805,3.14195 -6.99805,7.00195v10c0,3.859 3.14195,6.99805 7.00195,6.99805h10c3.859,0 6.99805,-3.14195 6.99805,-7.00195v-10c0,-3.859 -3.14195,-6.99805 -7.00195,-6.99805zM22,7c0.552,0 1,0.448 1,1c0,0.552 -0.448,1 -1,1c-0.552,0 -1,-0.448 -1,-1c0,-0.552 0.448,-1 1,-1zM15,9c3.309,0 6,2.691 6,6c0,3.309 -2.691,6 -6,6c-3.309,0 -6,-2.691 -6,-6c0,-3.309 2.691,-6 6,-6zM15,11c-2.20914,0 -4,1.79086 -4,4c0,2.20914 1.79086,4 4,4c2.20914,0 4,-1.79086 4,-4c0,-2.20914 -1.79086,-4 -4,-4z"></path></g></g></svg>
  </symbol>
</svg>        